<svg xmlns="http://www.w3.org/2000/svg" width="43.523" height="43.523" viewBox="0 0 43.523 43.523"><defs><style>.a{fill:none;fill-rule:evenodd;}.b{fill:#4ca1f4;}</style></defs><path class="a" d="M0,0H43.523V43.523H0Z"/><path class="b" d="M23.646,7.186c.394,1.441-.132,1.441-.823,1.441l.823-1.441ZM9.627,21.321v7.254a1.813,1.813,0,0,1-3.627,0V6.813A1.813,1.813,0,0,1,7.813,5H25.948a1.813,1.813,0,0,1,1.575,2.713l-2.514,4.4-.6,1.049,3.113,5.447a1.814,1.814,0,0,1-1.575,2.713ZM11.912,8.627H9.627v9.067h13.2L20.746,14.06a1.813,1.813,0,0,1,0-1.8l2.076-3.634Z" transform="translate(4.881 4.067)"/></svg>