<svg xmlns="http://www.w3.org/2000/svg" width="43.523" height="43.523" viewBox="0 0 43.523 43.523"><defs><style>.a{fill:none;fill-rule:evenodd;}.b{fill:#4ca1f4;}</style></defs><path class="a" d="M0,0H43.523V43.523H0Z"/><path class="b" d="M12.259,20.259l-.268.268L10.073,25.32,14.866,23.4l.268-.268Zm2.565-2.565L17.7,20.57l8.316-8.316L23.139,9.378Zm-5.66.531L21.857,5.531a1.813,1.813,0,0,1,2.565,0l5.44,5.44a1.813,1.813,0,0,1,0,2.565L17.168,26.23a1.813,1.813,0,0,1-.609.4L7.492,30.258A1.813,1.813,0,0,1,5.134,27.9l3.627-9.067a1.813,1.813,0,0,1,.4-.609Z" transform="translate(4.067 4.067)"/></svg>