<svg xmlns="http://www.w3.org/2000/svg" width="43.523" height="43.523" viewBox="0 0 43.523 43.523"><defs><style>.a{fill:none;fill-rule:evenodd;}.b{fill:#4ca1f4;}</style></defs><path class="a" d="M0,0H43.523V43.523H0Z"/><path class="b" d="M17.694,30.388A12.694,12.694,0,1,1,30.388,17.694,12.694,12.694,0,0,1,17.694,30.388Zm0-3.627a9.067,9.067,0,1,0-9.067-9.067A9.067,9.067,0,0,0,17.694,26.761Zm-2.076-12.01,4.93-2.324a1.813,1.813,0,0,1,2.414,2.414l-2.324,4.93a1.813,1.813,0,0,1-.867.867l-4.93,2.324a1.813,1.813,0,0,1-2.414-2.414l2.324-4.93a1.813,1.813,0,0,1,.867-.867Zm2.076,4.757a1.813,1.813,0,1,0-1.813-1.813A1.813,1.813,0,0,0,17.694,19.508Z" transform="translate(4.067 4.067)"/></svg>