<svg xmlns="http://www.w3.org/2000/svg" width="43.523" height="43.523" viewBox="0 0 43.523 43.523"><defs><style>.a{fill:none;fill-rule:evenodd;}.b{fill:#4ca1f4;}</style></defs><path class="a" d="M0,0H43.523V43.523H0Z"/><path class="b" d="M10.706,11.917a9.07,9.07,0,0,0,2.809,13.826,32.189,32.189,0,0,0,4.106-3.1c1.89-1.89,4.874-1.735,7.5.245a9.072,9.072,0,0,0,.156-10.164,23.2,23.2,0,0,0-2.773,2.895s-3.21,4.086-3.929,4.768c-2.393,2.267-4.511.657-4.511-2.7a1.443,1.443,0,0,0-.633-1.319c.086.083-.481-.453-.651-.622a7.364,7.364,0,0,1-2.078-3.836ZM14.071,9.38c.039,2.039.448,2.977,1.281,3.813.123.123.638.609.59.563a5.229,5.229,0,0,1,1.545,2.34c.983-1.214,2.116-2.653,2.231-2.792a27.524,27.524,0,0,1,3-3.158,9.082,9.082,0,0,0-8.648-.766Zm8.364,16.045c-1.023-.629-1.844-.619-2.25-.214a18.23,18.23,0,0,1-1.8,1.525,9.013,9.013,0,0,0,4.053-1.311Zm-4.741,4.964A12.694,12.694,0,1,1,30.388,17.694,12.694,12.694,0,0,1,17.694,30.388Z" transform="translate(4.067 4.067)"/></svg>